<svg width="76" height="44" viewBox="0 0 76 44" fill="none" xmlns="http://www.w3.org/2000/svg">
<circle cx="38" cy="22" r="22" fill="white"/>
<path d="M31.2291 23.7309L32.0458 23.4203L32.6494 21.4875C32.6494 21.4875 33.5693 21.3457 33.6258 20.0736C33.6822 18.8015 33.5015 18.4847 33.5015 18.4847L41.2874 11.0708C41.2874 11.0708 41.7889 10.6862 41.4586 9.72222L31.2291 17.1244C31.2291 17.1244 30.5146 17.6582 29.8089 19.3827C29.1032 21.1072 28.0837 23.6163 28.0146 24.1439C27.9455 24.6714 28.0755 25.8647 29.4228 26.505C30.7701 27.1454 32.683 26.0644 33.6258 25.1818C34.5686 24.2992 35.6147 22.2868 35.6147 22.2868L37.4895 25.3611L39.0068 27.9806L39.3472 28.5457C39.3472 28.5457 39.5546 29.0998 40.5031 28.9827L40.8638 28.8527L37.6709 21.3599C37.6709 21.3599 37.0952 20.1981 36.16 20.0113C35.2248 19.8246 34.7302 20.0323 34.3023 20.37C33.8743 20.7078 32.2575 23.6046 32.2575 23.6046L31.2279 23.7309H31.2291Z" fill="black"/>
<path d="M33.9181 18.4884L35.3015 18.8841L39.7264 17.7321C39.7264 17.7321 39.8558 18.1469 39.5413 18.5876C39.2268 19.0283 36.6679 19.8073 36.6679 19.8073C36.6679 19.8073 35.2223 19.5294 34.5223 19.9047L34.2281 20.216L33.7285 18.5876L33.9187 18.4877L33.9181 18.4884Z" fill="black"/>
<path d="M30.8393 15.758C31.3718 15.5509 31.6204 15.3438 31.6914 15.1712C31.8334 14.9642 31.8334 14.688 31.6914 14.481C31.4784 14.1358 31.0523 14.0323 30.7327 14.2393C30.5907 14.3429 30.2002 14.7226 30.2002 14.7226C29.3835 15.4819 28.7444 15.3438 28.6734 15.5509C28.6734 15.7235 29.9516 16.0686 30.8393 15.758Z" fill="black"/>
<path d="M32.4281 15.9676L35.4309 13.9226C35.2489 13.5984 34.9389 13.3494 34.5312 13.2384L34.2827 13.1694C33.4305 12.9278 32.5784 13.5145 32.4009 14.4464L32.2233 15.5164C32.203 15.7469 32.2931 15.872 32.4281 15.9676Z" fill="black"/>
<path d="M35.7333 26.3713C35.7333 25.9916 35.4493 25.5429 35.0942 25.3359L34.3372 24.9291C32.8035 26.6628 31.5792 27.0961 31.5792 27.0961L33.7805 27.7519L35.0232 35L35.2362 34.8965C35.5913 34.7584 35.8753 34.3442 35.8753 33.9646L35.7333 26.3713Z" fill="black"/>
<path fill-rule="evenodd" clip-rule="evenodd" d="M41.5715 9H48V9.72222H42.2857V35H41.5715V9Z" fill="black"/>
</svg>
